HIERARCHY
ROOT Hips
{
  OFFSET 48.0515 84.18 13.2329
  CHANNELS 6 Xposition Yposition Zposition Zrotation Xrotation Yrotation
  JOINT spine
  {
    OFFSET 0 6.24479 0.359107
    CHANNELS 3 Zrotation Xrotation Yrotation
    JOINT spine1
    {
      OFFSET 0 9.06941 0
      CHANNELS 3 Zrotation Xrotation Yrotation
      JOINT spine2
      {
        OFFSET 0 8.69014 0
        CHANNELS 3 Zrotation Xrotation Yrotation
        JOINT Neck
        {
          OFFSET 0 22.3112 1.06372
          CHANNELS 3 Zrotation Xrotation Yrotation
          JOINT Head
          {
            OFFSET 0 6.74081 0
            CHANNELS 3 Zrotation Xrotation Yrotation
            End Site
            {
              OFFSET 0 16.3165 -5.38097
            }
          }
        }
        JOINT RightShoulder
        {
          OFFSET -3.65916 9.38468 -0.509514
          CHANNELS 3 Zrotation Xrotation Yrotation
          JOINT RightArm
          {
            OFFSET 0 12.3089 0
            CHANNELS 3 Zrotation Xrotation Yrotation
            JOINT RightArmRoll
            {
              OFFSET 0 6.21375 0
              CHANNELS 3 Zrotation Xrotation Yrotation
              JOINT RightForeArm
              {
                OFFSET 0 18.0985 0
                CHANNELS 3 Zrotation Xrotation Yrotation
                JOINT RightForeArmRoll
                {
                  OFFSET 0 6.97279 0
                  CHANNELS 3 Zrotation Xrotation Yrotation
                  JOINT RightHand
                  {
                    OFFSET 0 13.9929 0
                    CHANNELS 3 Zrotation Xrotation Yrotation
                    End Site
                    {
                      OFFSET 0 0 0
                    }
                  }
                }
              }
            }
          }
        }
        JOINT LeftShoulder
        {
          OFFSET 3.65916 9.38468 -0.509514
          CHANNELS 3 Zrotation Xrotation Yrotation
          JOINT LeftArm
          {
            OFFSET 0 12.3089 0
            CHANNELS 3 Zrotation Xrotation Yrotation
            JOINT LeftArmRoll
            {
              OFFSET 0 6.21375 0
              CHANNELS 3 Zrotation Xrotation Yrotation
              JOINT LeftForeArm
              {
                OFFSET 0 18.0985 0
                CHANNELS 3 Zrotation Xrotation Yrotation
                JOINT LeftForeArmRoll
                {
                  OFFSET 0 6.9728 0
                  CHANNELS 3 Zrotation Xrotation Yrotation
                  JOINT LeftHand
                  {
                    OFFSET 0 13.9929 0
                    CHANNELS 3 Zrotation Xrotation Yrotation
                    End Site
                    {
                      OFFSET 0 0 0
                    }
                  }
                }
              }
            }
          }
        }
      }
    }
  }
  JOINT RightUpLeg
  {
    OFFSET -5.53515 -1.015 -0.851454
    CHANNELS 3 Zrotation Xrotation Yrotation
    JOINT RightUpLegRoll
    {
      OFFSET 0 16.4075 0
      CHANNELS 3 Zrotation Xrotation Yrotation
      JOINT RightLeg
      {
        OFFSET 0 -20.3181 0
        CHANNELS 3 Zrotation Xrotation Yrotation
        JOINT RightLegRoll
        {
          OFFSET 0 20.3846 0
          CHANNELS 3 Zrotation Xrotation Yrotation
          JOINT RightFoot
          {
            OFFSET 0 16.9668 0
            CHANNELS 3 Zrotation Xrotation Yrotation
            JOINT RightToeBase
            {
              OFFSET 0 14.1834 0
              CHANNELS 3 Zrotation Xrotation Yrotation
              End Site
              {
                OFFSET 0.0060118 6.86889 -0.791746
              }
            }
          }
        }
      }
    }
  }
  JOINT LeftUpLeg
  {
    OFFSET 5.53515 -1.015 -0.851454
    CHANNELS 3 Zrotation Xrotation Yrotation
    JOINT LeftUpLegRoll
    {
      OFFSET 0 16.4076 0
      CHANNELS 3 Zrotation Xrotation Yrotation
      JOINT LeftLeg
      {
        OFFSET 0 20.3181 0
        CHANNELS 3 Zrotation Xrotation Yrotation
        JOINT LeftLegRoll
        {
          OFFSET 0 20.5731 0
          CHANNELS 3 Zrotation Xrotation Yrotation
          JOINT LeftFoot
          {
            OFFSET 0 16.7783 0
            CHANNELS 3 Zrotation Xrotation Yrotation
            JOINT LeftToeBase
            {
              OFFSET 0 14.1834 0
              CHANNELS 3 Zrotation Xrotation Yrotation
              End Site
              {
                OFFSET -0.0269423 6.8689 -0.791746
              }
            }
          }
        }
      }
    }
  }
}
MOTION
Frames: 11
Frame Time: 0.00208333
47.5681 84.1266 14.4328 -0.258841 -1.91086 -4.61349 -0.357891 -1.54118 0.0468361 -0.71782 0.913777 0.138662 -0.719901 2.55877 0.150756 7.12863 13.0074 -1.12257 -1.92911 -1.52033 0.995294 66.8316 -1.97249 -1.94561 123.159 34.6306 -58.369 1.61222e-007 5.7503e-006 -5.22078e-006 -155.943 84.07 145.61 2.22919e-006 -4.0913e-006 -3 8.03013 -4.95122 0.697598 -58.7054 -7.80405 4.82086 -123.479 25.5332 62.1488 1.48677e-007 -5.76219e-006 3.27581e-006 11.5126 89.8003 -2.99105 2.61569e-007 -2.17694e-006 3.00001 -8.03019 -4.95109 -0.697587 176.178 5.05537 0.852053 180 7.01592e-015 179.141 179.727 11.9171 178.917 -3.40267e-006 -1.63035e-006 0.0725306 -15.4582 68.9922 20.2694 8.1365 25.2327 -3.48771 -176.069 -1.62859 -3.50825 -1.07169e-005 -4.64205e-006 -1.11316 -1.54676 -11.6134 0.596152 3.15894e-006 -3.53574e-006 -0.383591 25.2493 74.0203 -26.4587 -8.1372 25.2561 3.46897 
47.5705 84.124 14.4346 -0.26066 -1.90582 -4.61201 -0.35693 -1.54236 0.0482978 -0.715468 0.911923 0.141007 -0.717572 2.55692 0.153066 7.09192 12.9995 -1.1202 -1.901 -1.48467 0.988753 66.8197 -1.94897 -1.93203 123.072 34.5833 -58.0843 1.61222e-007 5.7503e-006 -5.22078e-006 -156.052 84.101 145.76 2.22919e-006 -4.0913e-006 -3 8.03013 -4.95122 0.697598 -58.7011 -7.82962 4.83699 -123.47 25.5367 61.9803 1.48677e-007 -5.76219e-006 3.27581e-006 22.1346 89.8107 -13.5899 2.61569e-007 -2.17694e-006 3.00001 -8.03019 -4.95109 -0.697587 176.186 5.06416 0.840306 180 7.01592e-015 179.141 179.739 11.9248 178.914 -3.40267e-006 -1.63035e-006 0.0725193 -15.4531 68.993 20.2699 8.1365 25.2327 -3.48771 -176.065 -1.61926 -3.50999 -1.07169e-005 -4.64205e-006 -1.11284 -1.5483 -11.6217 0.595829 3.15894e-006 -3.53574e-006 -0.383694 25.2611 74.0268 -26.4705 -8.13705 25.2539 3.47066 
47.5761 84.116 14.4191 -0.262501 -1.90099 -4.61054 -0.356018 -1.5435 0.0497819 -0.713177 0.910188 0.143348 -0.715303 2.55518 0.155372 7.05627 12.9899 -1.1179 -1.8751 -1.44577 0.98221 66.8091 -1.92531 -1.9185 122.988 34.5375 -57.7919 1.61222e-007 5.7503e-006 -5.22078e-006 -156.174 84.1335 145.926 2.22919e-006 -4.0913e-006 -3 8.03013 -4.95122 0.697598 -58.6965 -7.85496 4.85295 -123.464 25.5439 61.8076 1.48677e-007 -5.76219e-006 3.27581e-006 32.8501 89.8126 -24.2844 2.61569e-007 -2.17694e-006 3.00001 -8.03019 -4.95109 -0.697587 176.195 5.07296 0.828125 180 7.01592e-015 179.141 179.752 11.9331 178.912 -3.40267e-006 -1.63035e-006 0.0725093 -15.4477 68.9938 20.2703 8.1365 25.2327 -3.48771 -176.062 -1.61009 -3.51184 -1.07169e-005 -4.64205e-006 -1.11251 -1.54996 -11.6302 0.595476 3.15894e-006 -3.53574e-006 -0.383808 25.2733 74.0337 -26.4826 -8.13689 25.2516 3.47246 
47.5776 84.1209 14.4224 -0.264345 -1.89636 -4.60903 -0.355145 -1.54462 0.0512696 -0.710939 0.908539 0.14566 -0.713088 2.55354 0.15765 7.02165 12.9794 -1.11563 -1.85133 -1.40472 0.975742 66.8 -1.90148 -1.90502 122.905 34.4934 -57.4928 1.61222e-007 5.7503e-006 -5.22078e-006 -156.309 84.1671 146.106 2.22919e-006 -4.0913e-006 -3 8.03013 -4.95122 0.697598 -58.6917 -7.87979 4.86859 -123.459 25.5546 61.6307 1.48677e-007 -5.76219e-006 3.27581e-006 42.8765 89.8074 -34.2919 2.61569e-007 -2.17694e-006 3.00001 -8.03019 -4.95109 -0.697587 176.203 5.08167 0.815692 180 7.01592e-015 179.141 179.764 11.9417 178.909 -3.40267e-006 -1.63035e-006 0.0725009 -15.4423 68.9946 20.2708 8.1365 25.2327 -3.48771 -176.058 -1.60109 -3.51377 -1.07169e-005 -4.64205e-006 -1.11218 -1.55168 -11.6386 0.595105 3.15894e-006 -3.53574e-006 -0.383925 25.2856 74.0405 -26.4949 -8.13673 25.2491 3.47432 
47.5727 84.1245 14.4376 -0.266172 -1.89191 -4.60744 -0.354306 -1.54572 0.0527418 -0.708748 0.906938 0.147918 -0.710919 2.55194 0.159874 6.98804 12.9685 -1.11332 -1.82964 -1.36262 0.969425 66.7926 -1.87747 -1.89159 122.825 34.4511 -57.1882 1.61222e-007 5.7503e-006 -5.22078e-006 -156.454 84.2011 146.298 2.22919e-006 -4.0913e-006 -3 8.03013 -4.95122 0.697598 -58.687 -7.90383 4.88373 -123.457 25.5687 61.4497 1.48677e-007 -5.76219e-006 3.27581e-006 51.8131 89.7969 -43.211 2.61569e-007 -2.17694e-006 3.00001 -8.03019 -4.95109 -0.697587 176.211 5.0902 0.80319 180 7.01592e-015 179.141 179.777 11.9503 178.907 -3.40267e-006 -1.63035e-006 0.0724945 -15.4368 68.9954 20.2712 8.1365 25.2327 -3.48771 -176.055 -1.59228 -3.51573 -1.07169e-005 -4.64205e-006 -1.11185 -1.55344 -11.6469 0.594727 3.15894e-006 -3.53574e-006 -0.384039 25.2976 74.0473 -26.507 -8.13656 25.2467 3.47621 
47.5747 84.1243 14.4315 -0.267966 -1.88763 -4.60574 -0.353491 -1.54683 0.0541796 -0.706598 0.905348 0.150096 -0.708789 2.55035 0.162019 6.95541 12.9582 -1.11092 -1.80998 -1.32056 0.963335 66.7869 -1.85323 -1.87821 122.745 34.411 -56.8793 1.61222e-007 5.7503e-006 -5.22078e-006 -156.608 84.2353 146.5 2.22919e-006 -4.0913e-006 -3 8.03013 -4.95122 0.697598 -58.6827 -7.9268 4.8982 -123.454 25.5862 61.2646 1.48677e-007 -5.76219e-006 3.27581e-006 59.6324 89.7825 -51.014 2.61569e-007 -2.17694e-006 3.00001 -8.03019 -4.95109 -0.697587 176.22 5.09846 0.790801 180 7.01592e-015 179.141 179.79 11.9587 178.904 -3.40267e-006 -1.63035e-006 0.0724906 -15.4314 68.9961 20.2716 8.1365 25.2327 -3.48771 -176.051 -1.58367 -3.51767 -1.07169e-005 -4.64205e-006 -1.11152 -1.55517 -11.6549 0.594357 3.15894e-006 -3.53574e-006 -0.384145 25.3091 74.0539 -26.5186 -8.1364 25.2443 3.47807 
47.5749 84.1206 14.4228 -0.269706 -1.88351 -4.60389 -0.352693 -1.54794 0.055564 -0.704481 0.903734 0.15217 -0.706693 2.54874 0.164059 6.92374 12.9491 -1.10837 -1.79229 -1.27963 0.957546 66.7832 -1.82874 -1.86489 122.666 34.3733 -56.5671 1.61222e-007 5.7503e-006 -5.22078e-006 -156.77 84.2692 146.71 2.22919e-006 -4.0913e-006 -3 8.03013 -4.95122 0.697598 -58.6789 -7.94842 4.91183 -123.452 25.6068 61.0756 1.48677e-007 -5.76219e-006 3.27581e-006 66.5315 89.7654 -57.8974 2.61569e-007 -2.17694e-006 3.00001 -8.03019 -4.95109 -0.697587 176.228 5.10635 0.778709 180 7.01592e-015 179.141 179.803 11.9668 178.901 -3.40267e-006 -1.63035e-006 0.0724895 -15.4264 68.9967 20.2719 8.1365 25.2327 -3.48771 -176.047 -1.57529 -3.51956 -1.07169e-005 -4.64205e-006 -1.11119 -1.55684 -11.6625 0.594005 3.15894e-006 -3.53574e-006 -0.384235 25.3196 74.06 -26.5295 -8.13624 25.2419 3.47987 
47.5741 84.1205 14.4238 -0.271374 -1.87955 -4.60184 -0.351904 -1.54908 0.056876 -0.702392 0.902059 0.154113 -0.704623 2.54707 0.16597 6.893 12.9418 -1.10562 -1.77651 -1.24091 0.952136 66.7815 -1.80397 -1.85162 122.588 34.3382 -56.2527 1.61222e-007 5.7503e-006 -5.22078e-006 -156.937 84.3023 146.926 2.22919e-006 -4.0913e-006 -3 8.03013 -4.95122 0.697598 -58.6758 -7.9684 4.92445 -123.448 25.6306 60.8828 1.48677e-007 -5.76219e-006 3.27581e-006 72.7677 89.7461 -64.1182 2.61569e-007 -2.17694e-006 3.00001 -8.03019 -4.95109 -0.697587 176.236 5.11379 0.767095 180 7.01592e-015 179.141 179.815 11.9742 178.899 -3.40267e-006 -1.63035e-006 0.0724917 -15.4216 68.9972 20.2721 8.1365 25.2327 -3.48771 -176.044 -1.56714 -3.52135 -1.07169e-005 -4.64205e-006 -1.11087 -1.55838 -11.6696 0.593683 3.15894e-006 -3.53574e-006 -0.384304 25.329 74.0656 -26.5394 -8.13609 25.2397 3.48157 
47.5747 84.1259 14.4342 -0.272952 -1.87572 -4.59955 -0.351117 -1.55025 0.0580966 -0.700323 0.900287 0.155902 -0.702572 2.5453 0.167725 6.86317 12.9372 -1.10262 -1.7626 -1.20551 0.947179 66.782 -1.7789 -1.8384 122.509 34.3062 -55.9373 1.61222e-007 5.7503e-006 -5.22078e-006 -157.108 84.3342 147.146 2.22919e-006 -4.0913e-006 -3 8.03013 -4.95122 0.697598 -58.6737 -7.98647 4.93587 -123.441 25.6573 60.6861 1.48677e-007 -5.76219e-006 3.27581e-006 78.5846 89.7247 -69.9195 2.61569e-007 -2.17694e-006 3.00001 -8.03019 -4.95109 -0.697587 176.244 5.12068 0.756143 180 7.01592e-015 179.141 179.826 11.9807 178.897 -3.40267e-006 -1.63035e-006 0.0724975 -15.4174 68.9976 20.2723 8.1365 25.2327 -3.48771 -176.04 -1.55925 -3.52299 -1.07169e-005 -4.64205e-006 -1.11057 -1.55976 -11.6761 0.593405 3.15894e-006 -3.53574e-006 -0.384344 25.3368 74.0705 -26.5479 -8.13596 25.2377 3.48313 
47.5723 84.1257 14.4306 -0.274421 -1.87202 -4.59699 -0.350325 -1.55147 0.0592068 -0.698269 0.898382 0.15751 -0.700534 2.54339 0.169299 6.83421 12.936 -1.0993 -1.75049 -1.17452 0.942752 66.7848 -1.75349 -1.82524 122.431 34.2775 -55.6219 1.61222e-007 5.7503e-006 -5.22078e-006 -157.282 84.3645 147.367 2.22919e-006 -4.0913e-006 -3 8.03013 -4.95122 0.697598 -58.6728 -8.00235 4.94594 -123.432 25.687 60.4858 1.48677e-007 -5.76219e-006 3.27581e-006 84.1643 89.7013 -75.4831 2.61569e-007 -2.17694e-006 3.00001 -8.03019 -4.95109 -0.697587 176.251 5.12693 0.746036 180 7.01592e-015 179.141 179.837 11.9862 178.895 -3.40267e-006 -1.63035e-006 0.0725073 -15.4137 68.9978 20.2724 8.1365 25.2327 -3.48771 -176.037 -1.55162 -3.52445 -1.07169e-005 -4.64205e-006 -1.11027 -1.56092 -11.6818 0.593182 3.15894e-006 -3.53574e-006 -0.384351 25.3427 74.0745 -26.5548 -8.13583 25.2359 3.4845 
47.5683 84.1033 14.4241 -0.275763 -1.86843 -4.59411 -0.349518 -1.55275 0.0601876 -0.696222 0.896306 0.158912 -0.698502 2.54132 0.170666 6.80612 12.9388 -1.09561 -1.74013 -1.14902 0.938929 66.79 -1.72771 -1.81213 122.351 34.2526 -55.3077 1.61222e-007 5.7503e-006 -5.22078e-006 -157.455 84.3927 147.586 2.22919e-006 -4.0913e-006 -3 8.03013 -4.95122 0.697598 -58.6734 -8.01576 4.95448 -123.418 25.7195 60.2818 1.48677e-007 -5.76219e-006 3.27581e-006 89.6315 89.6751 -80.9331 2.61569e-007 -2.17694e-006 3.00001 -8.03019 -4.95109 -0.697587 176.257 5.13244 0.736956 180 7.01592e-015 179.141 179.846 11.9904 178.893 -3.40267e-006 -1.63035e-006 0.0725215 -15.4107 68.9979 20.2723 8.1365 25.2327 -3.48771 -176.034 -1.54429 -3.52567 -1.07169e-005 -4.64205e-006 -1.11 -1.56182 -11.6867 0.593027 3.15894e-006 -3.53574e-006 -0.384316 25.3464 74.0775 -26.5597 -8.13573 25.2344 3.48564 
